Coordinates
version=1
nRows=19
nColumns=18
inDegrees=yes

Units are S.I. units (second, meters, Newtons, ...)
If the header above contains a line with 'inDegrees', this indicates whether rotational values are in degrees (yes) or radians (no).

endheader
time	TH_y	TH_x	TH_z	TH_x_trans	TH_y_trans	TH_z_trans	SC_y	SC_z	SC_x	AC_y	AC_z	AC_x	GH_y	GH_z	GH_yy	EL_x	PS_y
     54.04000000	   -148.85460853	     -2.17800847	     -0.43534059	     -0.00659425	      1.47592715	      0.03349194	    -19.74777133	      3.77994340	      1.56212248	     60.97120709	      0.80393189	     -7.38011671	     -3.49258919	      3.17160627	     -7.21955253	     35.67331812	     80.68850147
     54.05000000	   -148.92260612	     -2.21145336	     -0.42786642	     -0.00692739	      1.47591074	      0.03329994	    -19.84158332	      3.75134202	      1.85690826	     60.96757847	      0.99949317	     -7.08682926	     -3.52877609	      3.34796264	     -7.27340352	     36.47158620	     80.67504655
     54.06000000	   -148.92394936	     -2.19270635	     -0.44841808	     -0.00719669	      1.47598249	      0.03300740	    -19.94848260	      3.72592775	      2.12026264	     60.92478396	      1.19211064	     -6.87105926	     -3.59219087	      3.51613241	     -7.35175316	     37.39060497	     80.65281168
     54.07000000	   -148.90612602	     -2.15623421	     -0.44947786	     -0.00744234	      1.47606545	      0.03264944	    -20.04874017	      3.68752726	      2.37634293	     60.86219401	      1.37560284	     -6.65733094	     -3.67010353	      3.67088972	     -7.44507270	     38.32349354	     80.62695465
     54.08000000	   -148.79481004	     -2.02325813	     -0.39342236	     -0.00754168	      1.47627987	      0.03200300	    -20.08638326	      3.59783505	      2.56725114	     60.68099357	      1.52387626	     -6.55485765	     -3.81802796	      3.76307067	     -7.60314342	     39.38319094	     80.60458530
     54.09000000	   -148.86585212	     -2.03199254	     -0.38781932	     -0.00789994	      1.47623680	      0.03176791	    -20.19214613	      3.58617811	      2.87443362	     60.68942079	      1.71588162	     -6.21455246	     -3.84937644	      3.93521878	     -7.65759911	     40.19476521	     80.59087263
     54.10000000	   -148.84672582	     -1.97507442	     -0.44854121	     -0.00817088	      1.47636749	      0.03136797	    -20.31388269	      3.56663327	      3.14263544	     60.61208444	      1.91294573	     -5.99702721	     -3.94087270	      4.09998194	     -7.76661265	     41.14348525	     80.56743516
     54.11000000	   -148.83979228	     -1.92013423	     -0.45270776	     -0.00848991	      1.47641308	      0.03099530	    -20.42694376	      3.54558166	      3.41452360	     60.55280428	      2.08717369	     -5.71283451	     -4.01889578	      4.24163048	     -7.86646612	     42.04828192	     80.54653168
     54.12000000	   -148.82185391	     -1.85071920	     -0.46723946	     -0.00877695	      1.47646281	      0.03058162	    -20.54148511	      3.53077184	      3.68379578	     60.47983023	      2.26162469	     -5.43487600	     -4.10468529	      4.37958764	     -7.97454737	     42.95674672	     80.52729044
     54.13000000	   -148.80656303	     -1.78488939	     -0.48255399	     -0.00909769	      1.47650030	      0.03018144	    -20.66186574	      3.51773091	      3.95899001	     60.40625139	      2.43253596	     -5.13221535	     -4.19055368	      4.51168179	     -8.08487618	     43.84928022	     80.51115181
     54.14000000	   -148.80596966	     -1.71921011	     -0.48800461	     -0.00942666	      1.47651188	      0.02984971	    -20.79253470	      3.51189089	      4.23951702	     60.34854483	      2.59614113	     -4.79433453	     -4.26714862	      4.63821745	     -8.18876452	     44.70493709	     80.49795421
     54.15000000	   -148.78150758	     -1.64581928	     -0.52704092	     -0.00975735	      1.47656298	      0.02944363	    -20.93144807	      3.50055736	      4.52035189	     60.25632576	      2.76615971	     -4.47558700	     -4.36707814	      4.76398913	     -8.31596180	     45.57619293	     80.48763708
     54.16000000	   -148.75938685	     -1.57191511	     -0.55414859	     -0.01007954	      1.47659696	      0.02907477	    -21.07589733	      3.48763376	      4.80136970	     60.16015867	      2.92717374	     -4.13576350	     -4.46871582	      4.87748603	     -8.44717147	     46.43161681	     80.48413012
     54.17000000	   -148.65660673	     -1.42156275	     -0.55891535	     -0.01030458	      1.47671118	      0.02853407	    -21.18707827	      3.47294757	      5.03486779	     59.94166501	      3.06261835	     -3.86787652	     -4.60931226	      4.92058703	     -8.61703412	     47.37841451	     80.54139108
     54.18000000	   -148.69937395	     -1.40358823	     -0.59138614	     -0.01070195	      1.47670225	      0.02829854	    -21.34969580	      3.43293918	      5.36119082	     59.88076839	      3.23673329	     -3.45254357	     -4.68790293	      5.04629145	     -8.73284087	     48.12959811	     80.55914163
     54.19000000	   -148.59513585	     -1.28786712	     -0.59445290	     -0.01091476	      1.47676950	      0.02784029	    -21.48811170	      3.40875940	      5.62262878	     59.61256916	      3.38107186	     -3.14268567	     -4.80974996	      5.05310724	     -8.89547215	     49.04614138	     80.73338291
     54.20000000	   -148.63477763	     -1.27676992	     -0.65251096	     -0.01129219	      1.47678055	      0.02767918	    -21.67543677	      3.36747535	      5.95541512	     59.55031041	      3.55711290	     -2.71957804	     -4.88604489	      5.17683239	     -9.01142614	     49.77302438	     80.76798461
     54.21000000	   -148.52320097	     -1.16803044	     -0.70789435	     -0.01152758	      1.47686384	      0.02727921	    -21.87495316	      3.36102978	      6.22492422	     59.33141750	      3.70390705	     -2.38715937	     -5.01163081	      5.21708706	     -9.17652841	     50.64305129	     80.90565816
     54.22000000	   -148.48503679	     -1.14164410	     -0.71128438	     -0.01170350	      1.47687015	      0.02699710	    -22.27640472	      3.27169964	      6.85283694	     58.14097886	      4.16168730	     -1.96882035	     -4.58302437	      4.64678042	     -8.95101181	     51.41670948	     83.05702819
